<svg xmlns="http://www.w3.org/2000/svg" xmlns:xlink="http://www.w3.org/1999/xlink" xmlns:s="https://github.com/nturley/netlistsvg" width="819" height="993.5">
  <style>svg {
    stroke:#000;
    fill:none;
  }
  text {
    fill:#000;
    stroke:none;
    font-size:10px;
    font-weight: bold;
    font-family: "Courier New", monospace;
  }
  .nodelabel {
    text-anchor: middle;
  }
  .inputPortLabel {
    text-anchor: end;
  }
  .splitjoinBody {
    fill:#000;
  }</style>
  <g s:type="add" transform="translate(281.6666666666667,217)" s:width="25" s:height="25" id="cell_$add$Alu4.v:10$1">
    <s:alias val="$add"/>
    <circle r="12.5" cx="12.5" cy="12.5" class="cell_$add$Alu4.v:10$1"/>
    <line x1="7.5" x2="17.5" y1="12.5" y2="12.5" class="cell_$add$Alu4.v:10$1"/>
    <line x1="12.5" x2="12.5" y1="7.5" y2="17.5" class="cell_$add$Alu4.v:10$1"/>
    <g s:x="3" s:y="5" s:pid="A"/>
    <g s:x="3" s:y="20" s:pid="B"/>
    <g s:x="25" s:y="12.5" s:pid="Y"/>
  </g>
  <g s:type="add" transform="translate(170.33333333333334,365)" s:width="25" s:height="25" id="cell_$add$Alu4.v:11$3">
    <s:alias val="$add"/>
    <circle r="12.5" cx="12.5" cy="12.5" class="cell_$add$Alu4.v:11$3"/>
    <line x1="7.5" x2="17.5" y1="12.5" y2="12.5" class="cell_$add$Alu4.v:11$3"/>
    <line x1="12.5" x2="12.5" y1="7.5" y2="17.5" class="cell_$add$Alu4.v:11$3"/>
    <g s:x="3" s:y="5" s:pid="A"/>
    <g s:x="3" s:y="20" s:pid="B"/>
    <g s:x="25" s:y="12.5" s:pid="Y"/>
  </g>
  <g s:type="add" transform="translate(281.6666666666667,372.5)" s:width="25" s:height="25" id="cell_$add$Alu4.v:11$4">
    <s:alias val="$add"/>
    <circle r="12.5" cx="12.5" cy="12.5" class="cell_$add$Alu4.v:11$4"/>
    <line x1="7.5" x2="17.5" y1="12.5" y2="12.5" class="cell_$add$Alu4.v:11$4"/>
    <line x1="12.5" x2="12.5" y1="7.5" y2="17.5" class="cell_$add$Alu4.v:11$4"/>
    <g s:x="3" s:y="5" s:pid="A"/>
    <g s:x="3" s:y="20" s:pid="B"/>
    <g s:x="25" s:y="12.5" s:pid="Y"/>
  </g>
  <g s:type="not" transform="translate(694,97)" s:width="30" s:height="20" id="cell_$eq$Alu4.v:46$12">
    <s:alias val="$_NOT_"/>
    <s:alias val="$not"/>
    <s:alias val="$logic_not"/>
    <path d="M0,0 L0,20 L20,10 Z" class="cell_$eq$Alu4.v:46$12"/>
    <circle cx="23" cy="10" r="3" class="cell_$eq$Alu4.v:46$12"/>
    <g s:x="0" s:y="10" s:pid="A"/>
    <g s:x="25" s:y="10" s:pid="Y"/>
  </g>
  <g s:type="generic" transform="translate(149,442.5)" s:width="30" s:height="40" id="cell_$mul$Alu4.v:12$5">
    <text x="15" y="-4" class="nodelabel cell_$mul$Alu4.v:12$5" s:attribute="ref">$mul</text>
    <rect width="30" height="40" s:generic="body" class="cell_$mul$Alu4.v:12$5"/>
    <g transform="translate(0,10)" s:x="0" s:y="10" s:pid="in0" id="port_$mul$Alu4.v:12$5~A">
      <text x="-3" y="-4" class="inputPortLabel cell_$mul$Alu4.v:12$5">A</text>
    </g>
    <g transform="translate(0,30)" s:x="0" s:y="10" s:pid="in0" id="port_$mul$Alu4.v:12$5~B">
      <text x="-3" y="-4" class="inputPortLabel cell_$mul$Alu4.v:12$5">B</text>
    </g>
    <g transform="translate(30,10)" s:x="30" s:y="10" s:pid="out0" id="port_$mul$Alu4.v:12$5~Y">
      <text x="5" y="-4" style="fill:#000; stroke:none" class="cell_$mul$Alu4.v:12$5">Y</text>
    </g>
  </g>
  <g s:type="not" transform="translate(77,375)" s:width="30" s:height="20" id="cell_$not$Alu4.v:11$2">
    <s:alias val="$_NOT_"/>
    <s:alias val="$not"/>
    <s:alias val="$logic_not"/>
    <path d="M0,0 L0,20 L20,10 Z" class="cell_$not$Alu4.v:11$2"/>
    <circle cx="23" cy="10" r="3" class="cell_$not$Alu4.v:11$2"/>
    <g s:x="0" s:y="10" s:pid="A"/>
    <g s:x="25" s:y="10" s:pid="Y"/>
  </g>
  <g s:type="not" transform="translate(494.5,492)" s:width="30" s:height="20" id="cell_$not$Alu4.v:25$8">
    <s:alias val="$_NOT_"/>
    <s:alias val="$not"/>
    <s:alias val="$logic_not"/>
    <path d="M0,0 L0,20 L20,10 Z" class="cell_$not$Alu4.v:25$8"/>
    <circle cx="23" cy="10" r="3" class="cell_$not$Alu4.v:25$8"/>
    <g s:x="0" s:y="10" s:pid="A"/>
    <g s:x="25" s:y="10" s:pid="Y"/>
  </g>
  <g s:type="not" transform="translate(360,284)" s:width="30" s:height="20" id="cell_$not$Alu4.v:32$11">
    <s:alias val="$_NOT_"/>
    <s:alias val="$not"/>
    <s:alias val="$logic_not"/>
    <path d="M0,0 L0,20 L20,10 Z" class="cell_$not$Alu4.v:32$11"/>
    <circle cx="23" cy="10" r="3" class="cell_$not$Alu4.v:32$11"/>
    <g s:x="0" s:y="10" s:pid="A"/>
    <g s:x="25" s:y="10" s:pid="Y"/>
  </g>
  <g s:type="or" transform="translate(280,281.5)" s:width="30" s:height="25" id="cell_$or$Alu4.v:32$10">
    <s:alias val="$or"/>
    <s:alias val="$logic_or"/>
    <s:alias val="$_OR_"/>
    <path d="M0,25 L0,25 L15,25 A15 12.5 0 0 0 15,0 L0,0" class="cell_$or$Alu4.v:32$10"/>
    <path d="M0,0 A30 25 0 0 1 0,25" class="cell_$or$Alu4.v:32$10"/>
    <g s:x="3" s:y="5" s:pid="A"/>
    <g s:x="3" s:y="20" s:pid="B"/>
    <g s:x="30" s:y="12.5" s:pid="Y"/>
  </g>
  <g s:type="mux" transform="translate(697.3333333333334,152)" s:width="20" s:height="40" id="cell_$procmux$14">
    <s:alias val="$pmux"/>
    <s:alias val="$mux"/>
    <s:alias val="$_MUX_"/>
    <path d="M0,0 L20,10 L20,30 L0,40 Z" class="cell_$procmux$14"/>
    <g s:x="0" s:y="10" s:pid="A"/>
    <g s:x="0" s:y="30" s:pid="B"/>
    <g s:x="10" s:y="35" s:pid="S"/>
    <g s:x="20" s:y="20" s:pid="Y"/>
  </g>
  <g s:type="eq" transform="translate(364,666.5)" s:width="25" s:height="25" id="cell_$procmux$15_CMP0">
    <s:alias val="$eq"/>
    <circle r="12.5" cx="12.5" cy="12.5" class="cell_$procmux$15_CMP0"/>
    <line x1="7.5" x2="17.5" y1="10" y2="10" class="cell_$procmux$15_CMP0"/>
    <line x1="7.5" x2="17.5" y1="15" y2="15" class="cell_$procmux$15_CMP0"/>
    <g s:x="3" s:y="5" s:pid="A"/>
    <g s:x="3" s:y="20" s:pid="B"/>
    <g s:x="25" s:y="12.5" s:pid="Y"/>
  </g>
  <g s:type="eq" transform="translate(281.6666666666667,951.5)" s:width="25" s:height="25" id="cell_$procmux$16_CMP0">
    <s:alias val="$eq"/>
    <circle r="12.5" cx="12.5" cy="12.5" class="cell_$procmux$16_CMP0"/>
    <line x1="7.5" x2="17.5" y1="10" y2="10" class="cell_$procmux$16_CMP0"/>
    <line x1="7.5" x2="17.5" y1="15" y2="15" class="cell_$procmux$16_CMP0"/>
    <g s:x="3" s:y="5" s:pid="A"/>
    <g s:x="3" s:y="20" s:pid="B"/>
    <g s:x="25" s:y="12.5" s:pid="Y"/>
  </g>
  <g s:type="eq" transform="translate(281.6666666666667,796.5)" s:width="25" s:height="25" id="cell_$procmux$17_CMP0">
    <s:alias val="$eq"/>
    <circle r="12.5" cx="12.5" cy="12.5" class="cell_$procmux$17_CMP0"/>
    <line x1="7.5" x2="17.5" y1="10" y2="10" class="cell_$procmux$17_CMP0"/>
    <line x1="7.5" x2="17.5" y1="15" y2="15" class="cell_$procmux$17_CMP0"/>
    <g s:x="3" s:y="5" s:pid="A"/>
    <g s:x="3" s:y="20" s:pid="B"/>
    <g s:x="25" s:y="12.5" s:pid="Y"/>
  </g>
  <g s:type="not" transform="translate(280,896.5)" s:width="30" s:height="20" id="cell_$procmux$18_CMP0">
    <s:alias val="$_NOT_"/>
    <s:alias val="$not"/>
    <s:alias val="$logic_not"/>
    <path d="M0,0 L0,20 L20,10 Z" class="cell_$procmux$18_CMP0"/>
    <circle cx="23" cy="10" r="3" class="cell_$procmux$18_CMP0"/>
    <g s:x="0" s:y="10" s:pid="A"/>
    <g s:x="25" s:y="10" s:pid="Y"/>
  </g>
  <g s:type="mux" transform="translate(639,22)" s:width="20" s:height="40" id="cell_$procmux$20">
    <s:alias val="$pmux"/>
    <s:alias val="$mux"/>
    <s:alias val="$_MUX_"/>
    <path d="M0,0 L20,10 L20,30 L0,40 Z" class="cell_$procmux$20"/>
    <g s:x="0" s:y="10" s:pid="A"/>
    <g s:x="0" s:y="30" s:pid="B"/>
    <g s:x="10" s:y="35" s:pid="S"/>
    <g s:x="20" s:y="20" s:pid="Y"/>
  </g>
  <g s:type="eq" transform="translate(364,731.5)" s:width="25" s:height="25" id="cell_$procmux$22_CMP0">
    <s:alias val="$eq"/>
    <circle r="12.5" cx="12.5" cy="12.5" class="cell_$procmux$22_CMP0"/>
    <line x1="7.5" x2="17.5" y1="10" y2="10" class="cell_$procmux$22_CMP0"/>
    <line x1="7.5" x2="17.5" y1="15" y2="15" class="cell_$procmux$22_CMP0"/>
    <g s:x="3" s:y="5" s:pid="A"/>
    <g s:x="3" s:y="20" s:pid="B"/>
    <g s:x="25" s:y="12.5" s:pid="Y"/>
  </g>
  <g s:type="generic" transform="translate(447,576.5)" s:width="30" s:height="40" id="cell_$reduce_or$Alu4.v:29$9">
    <text x="15" y="-4" class="nodelabel cell_$reduce_or$Alu4.v:29$9" s:attribute="ref">$reduce_or</text>
    <rect width="30" height="20" s:generic="body" class="cell_$reduce_or$Alu4.v:29$9"/>
    <g transform="translate(0,10)" s:x="0" s:y="10" s:pid="in0" id="port_$reduce_or$Alu4.v:29$9~A">
      <text x="-3" y="-4" class="inputPortLabel cell_$reduce_or$Alu4.v:29$9">A</text>
    </g>
    <g transform="translate(30,10)" s:x="30" s:y="10" s:pid="out0" id="port_$reduce_or$Alu4.v:29$9~Y">
      <text x="5" y="-4" style="fill:#000; stroke:none" class="cell_$reduce_or$Alu4.v:29$9">Y</text>
    </g>
  </g>
  <g s:type="inputExt" transform="translate(77,276.5)" s:width="30" s:height="20" id="cell_a">
    <text x="15" y="-4" class="nodelabel cell_a" s:attribute="ref">a</text>
    <s:alias val="$_inputExt_"/>
    <path d="M0,0 L0,20 L15,20 L30,10 L15,0 Z" class="cell_a"/>
    <g s:x="28" s:y="10" s:pid="Y"/>
  </g>
  <g s:type="inputExt" transform="translate(12,227)" s:width="30" s:height="20" id="cell_b">
    <text x="15" y="-4" class="nodelabel cell_b" s:attribute="ref">b</text>
    <s:alias val="$_inputExt_"/>
    <path d="M0,0 L0,20 L15,20 L30,10 L15,0 Z" class="cell_b"/>
    <g s:x="28" s:y="10" s:pid="Y"/>
  </g>
  <g s:type="inputExt" transform="translate(149,871.5)" s:width="30" s:height="20" id="cell_op">
    <text x="15" y="-4" class="nodelabel cell_op" s:attribute="ref">op</text>
    <s:alias val="$_inputExt_"/>
    <path d="M0,0 L0,20 L15,20 L30,10 L15,0 Z" class="cell_op"/>
    <g s:x="28" s:y="10" s:pid="Y"/>
  </g>
  <g s:type="outputExt" transform="translate(759,32)" s:width="30" s:height="20" id="cell_y">
    <text x="15" y="-4" class="nodelabel cell_y" s:attribute="ref">y</text>
    <s:alias val="$_outputExt_"/>
    <path d="M30,0 L30,20 L15,20 L0,10 L15,0 Z" class="cell_y"/>
    <g s:x="0" s:y="10" s:pid="A"/>
  </g>
  <g s:type="outputExt" transform="translate(759,162)" s:width="30" s:height="20" id="cell_overflow">
    <text x="15" y="-4" class="nodelabel cell_overflow" s:attribute="ref">overflow</text>
    <s:alias val="$_outputExt_"/>
    <path d="M30,0 L30,20 L15,20 L0,10 L15,0 Z" class="cell_overflow"/>
    <g s:x="0" s:y="10" s:pid="A"/>
  </g>
  <g s:type="outputExt" transform="translate(759,97)" s:width="30" s:height="20" id="cell_zero">
    <text x="15" y="-4" class="nodelabel cell_zero" s:attribute="ref">zero</text>
    <s:alias val="$_outputExt_"/>
    <path d="M30,0 L30,20 L15,20 L0,10 L15,0 Z" class="cell_zero"/>
    <g s:x="0" s:y="10" s:pid="A"/>
  </g>
  <g s:type="constant" transform="translate(149,806.5)" s:width="30" s:height="20" id="cell_1">
    <text x="15" y="-4" class="nodelabel cell_1" s:attribute="ref">1</text>
    <s:alias val="$_constant_"/>
    <rect width="30" height="20" class="cell_1"/>
    <g s:x="30" s:y="10" s:pid="Y"/>
  </g>
  <g s:type="constant" transform="translate(360,152)" s:width="30" s:height="20" id="cell_0">
    <text x="15" y="-4" class="nodelabel cell_0" s:attribute="ref">0</text>
    <s:alias val="$_constant_"/>
    <rect width="30" height="20" class="cell_0"/>
    <g s:x="30" s:y="10" s:pid="Y"/>
  </g>
  <g s:type="constant" transform="translate(280,676.5)" s:width="30" s:height="20" id="cell_100">
    <text x="15" y="-4" class="nodelabel cell_100" s:attribute="ref">100</text>
    <s:alias val="$_constant_"/>
    <rect width="30" height="20" class="cell_100"/>
    <g s:x="30" s:y="10" s:pid="Y"/>
  </g>
  <g s:type="constant" transform="translate(149,961.5)" s:width="30" s:height="20" id="cell_10">
    <text x="15" y="-4" class="nodelabel cell_10" s:attribute="ref">10</text>
    <s:alias val="$_constant_"/>
    <rect width="30" height="20" class="cell_10"/>
    <g s:x="30" s:y="10" s:pid="Y"/>
  </g>
  <g s:type="constant" transform="translate(447,22)" s:width="30" s:height="20" id="cell_0000">
    <text x="15" y="-4" class="nodelabel cell_0000" s:attribute="ref">0x0</text>
    <s:alias val="$_constant_"/>
    <rect width="30" height="20" class="cell_0000"/>
    <g s:x="30" s:y="10" s:pid="Y"/>
  </g>
  <g s:type="constant" transform="translate(280,741.5)" s:width="30" s:height="20" id="cell_11">
    <text x="15" y="-4" class="nodelabel cell_11" s:attribute="ref">11</text>
    <s:alias val="$_constant_"/>
    <rect width="30" height="20" class="cell_11"/>
    <g s:x="30" s:y="10" s:pid="Y"/>
  </g>
  <g s:type="join" transform="translate(646.5,744)" s:width="4" s:height="40" id="cell_$join$,5,55,46,23,">
    <rect width="5" height="80" class="splitjoinBody" s:generic="body"/>
    <s:alias val="$_join_"/>
    <g s:x="5" s:y="20" s:pid="out"/>
    <g transform="translate(0,10)" s:x="0" s:y="10" s:pid="in0">
      <text x="-3" y="-4" class="inputPortLabel">0</text>
    </g>
    <g transform="translate(0,30)" s:x="0" s:y="10" s:pid="in0">
      <text x="-3" y="-4" class="inputPortLabel">1</text>
    </g>
    <g transform="translate(0,50)" s:x="0" s:y="10" s:pid="in0">
      <text x="-3" y="-4" class="inputPortLabel">2</text>
    </g>
    <g transform="translate(0,70)" s:x="0" s:y="10" s:pid="in0">
      <text x="-3" y="-4" class="inputPortLabel">3</text>
    </g>
  </g>
  <g s:type="join" transform="translate(646.6666666666666,846)" s:width="4" s:height="40" id="cell_$join$,56,57,58,59,">
    <rect width="5" height="40" class="splitjoinBody" s:generic="body"/>
    <s:alias val="$_join_"/>
    <g s:x="5" s:y="20" s:pid="out"/>
    <g transform="translate(0,10)" s:x="0" s:y="10" s:pid="in0">
      <text x="-3" y="-4" class="inputPortLabel">0</text>
    </g>
    <g transform="translate(0,30)" s:x="0" s:y="10" s:pid="in0">
      <text x="-3" y="-4" class="inputPortLabel">1:3</text>
    </g>
  </g>
  <g s:type="join" transform="translate(370,856)" s:width="4" s:height="40" id="cell_$join$,57,58,59,">
    <rect width="5" height="60" class="splitjoinBody" s:generic="body"/>
    <s:alias val="$_join_"/>
    <g s:x="5" s:y="20" s:pid="out"/>
    <g transform="translate(0,10)" s:x="0" s:y="10" s:pid="in0">
      <text x="-3" y="-4" class="inputPortLabel">0</text>
    </g>
    <g transform="translate(0,30)" s:x="0" s:y="10" s:pid="in0">
      <text x="-3" y="-4" class="inputPortLabel">1</text>
    </g>
    <g transform="translate(0,50)" s:x="0" s:y="10" s:pid="in0">
      <text x="-3" y="-4" class="inputPortLabel">2</text>
    </g>
  </g>
  <g s:type="join" transform="translate(471.2,341)" s:width="4" s:height="40" id="cell_$join$,62,2,3,4,51,52,53,54,38,39,40,41,33,34,35,36,19,20,21,22,">
    <rect width="5" height="120" class="splitjoinBody" s:generic="body"/>
    <s:alias val="$_join_"/>
    <g s:x="5" s:y="20" s:pid="out"/>
    <g transform="translate(0,10)" s:x="0" s:y="10" s:pid="in0">
      <text x="-3" y="-4" class="inputPortLabel">0</text>
    </g>
    <g transform="translate(0,30)" s:x="0" s:y="10" s:pid="in0">
      <text x="-3" y="-4" class="inputPortLabel">1:3</text>
    </g>
    <g transform="translate(0,50)" s:x="0" s:y="10" s:pid="in0">
      <text x="-3" y="-4" class="inputPortLabel">4:7</text>
    </g>
    <g transform="translate(0,70)" s:x="0" s:y="10" s:pid="in0">
      <text x="-3" y="-4" class="inputPortLabel">8:11</text>
    </g>
    <g transform="translate(0,90)" s:x="0" s:y="10" s:pid="in0">
      <text x="-3" y="-4" class="inputPortLabel">12:15</text>
    </g>
    <g transform="translate(0,110)" s:x="0" s:y="10" s:pid="in0">
      <text x="-3" y="-4" class="inputPortLabel">16:19</text>
    </g>
  </g>
  <g s:type="join" transform="translate(477.25,713.5)" s:width="4" s:height="40" id="cell_$join$,56,60,57,58,59,">
    <rect width="5" height="60" class="splitjoinBody" s:generic="body"/>
    <s:alias val="$_join_"/>
    <g s:x="5" s:y="20" s:pid="out"/>
    <g transform="translate(0,10)" s:x="0" s:y="10" s:pid="in0">
      <text x="-3" y="-4" class="inputPortLabel">0</text>
    </g>
    <g transform="translate(0,30)" s:x="0" s:y="10" s:pid="in0">
      <text x="-3" y="-4" class="inputPortLabel">1</text>
    </g>
    <g transform="translate(0,50)" s:x="0" s:y="10" s:pid="in0">
      <text x="-3" y="-4" class="inputPortLabel">2:4</text>
    </g>
  </g>
  <g s:type="join" transform="translate(370,566.5)" s:width="4" s:height="40" id="cell_$join$,45,44,43,42,">
    <rect width="5" height="80" class="splitjoinBody" s:generic="body"/>
    <s:alias val="$_join_"/>
    <g s:x="5" s:y="20" s:pid="out"/>
    <g transform="translate(0,10)" s:x="0" s:y="10" s:pid="in0">
      <text x="-3" y="-4" class="inputPortLabel">0</text>
    </g>
    <g transform="translate(0,30)" s:x="0" s:y="10" s:pid="in0">
      <text x="-3" y="-4" class="inputPortLabel">1</text>
    </g>
    <g transform="translate(0,50)" s:x="0" s:y="10" s:pid="in0">
      <text x="-3" y="-4" class="inputPortLabel">2</text>
    </g>
    <g transform="translate(0,70)" s:x="0" s:y="10" s:pid="in0">
      <text x="-3" y="-4" class="inputPortLabel">3</text>
    </g>
  </g>
  <g s:type="split" transform="translate(374.3333333333333,491.5)" s:width="5" s:height="40" id="cell_$split$,33,34,35,36,37,">
    <rect width="5" height="40" class="splitjoinBody" s:generic="body"/>
    <s:alias val="$_split_"/>
    <g s:x="0" s:y="20" s:pid="in"/>
    <g transform="translate(4,10)" s:x="4" s:y="10" s:pid="out0">
      <text x="5" y="-4">4</text>
    </g>
    <g transform="translate(4,30)" s:x="4" s:y="10" s:pid="out0">
      <text x="5" y="-4">0:3</text>
    </g>
  </g>
  <g s:type="split" transform="translate(374.3333333333333,341)" s:width="5" s:height="40" id="cell_$split$,2,3,4,5,">
    <rect width="5" height="40" class="splitjoinBody" s:generic="body"/>
    <s:alias val="$_split_"/>
    <g s:x="0" s:y="20" s:pid="in"/>
    <g transform="translate(4,10)" s:x="4" s:y="10" s:pid="out0">
      <text x="5" y="-4">3</text>
    </g>
    <g transform="translate(4,30)" s:x="4" s:y="10" s:pid="out0">
      <text x="5" y="-4">0:2</text>
    </g>
  </g>
  <g s:type="split" transform="translate(374.3333333333333,209)" s:width="5" s:height="40" id="cell_$split$,19,20,21,22,23,">
    <rect width="5" height="40" class="splitjoinBody" s:generic="body"/>
    <s:alias val="$_split_"/>
    <g s:x="0" s:y="20" s:pid="in"/>
    <g transform="translate(4,10)" s:x="4" s:y="10" s:pid="out0">
      <text x="5" y="-4">4</text>
    </g>
    <g transform="translate(4,30)" s:x="4" s:y="10" s:pid="out0">
      <text x="5" y="-4">0:3</text>
    </g>
  </g>
  <g s:type="split" transform="translate(286,432.5)" s:width="5" s:height="40" id="cell_$split$,38,39,40,41,42,43,44,45,">
    <rect width="5" height="100" class="splitjoinBody" s:generic="body"/>
    <s:alias val="$_split_"/>
    <g s:x="0" s:y="20" s:pid="in"/>
    <g transform="translate(4,10)" s:x="4" s:y="10" s:pid="out0">
      <text x="5" y="-4">0:3</text>
    </g>
    <g transform="translate(4,30)" s:x="4" s:y="10" s:pid="out0">
      <text x="5" y="-4">7</text>
    </g>
    <g transform="translate(4,50)" s:x="4" s:y="10" s:pid="out0">
      <text x="5" y="-4">6</text>
    </g>
    <g transform="translate(4,70)" s:x="4" s:y="10" s:pid="out0">
      <text x="5" y="-4">5</text>
    </g>
    <g transform="translate(4,90)" s:x="4" s:y="10" s:pid="out0">
      <text x="5" y="-4">4</text>
    </g>
  </g>
  <line x1="105" x2="255" y1="286.5" y2="286.5" class="net_2,3,4,5"/>
  <line x1="255" x2="255" y1="286.5" y2="222" class="net_2,3,4,5"/>
  <circle cx="255" cy="286.5" r="2" style="fill:#000" class="net_2,3,4,5"/>
  <line x1="255" x2="284.6666666666667" y1="222" y2="222" class="net_2,3,4,5"/>
  <line x1="105" x2="117" y1="286.5" y2="286.5" class="net_2,3,4,5"/>
  <line x1="117" x2="117" y1="286.5" y2="370" class="net_2,3,4,5"/>
  <circle cx="117" cy="286.5" r="2" style="fill:#000" class="net_2,3,4,5"/>
  <circle cx="117" cy="370" r="2" style="fill:#000" class="net_2,3,4,5"/>
  <line x1="117" x2="173.33333333333334" y1="370" y2="370" class="net_2,3,4,5"/>
  <line x1="105" x2="117" y1="286.5" y2="286.5" class="net_2,3,4,5"/>
  <line x1="117" x2="117" y1="286.5" y2="453" class="net_2,3,4,5"/>
  <line x1="117" x2="149" y1="453" y2="453" class="net_2,3,4,5"/>
  <line x1="105" x2="283" y1="286.5" y2="286.5" class="net_2,3,4,5"/>
  <line x1="105" x2="255" y1="286.5" y2="286.5" class="net_2,3,4,5"/>
  <line x1="255" x2="255" y1="286.5" y2="361.5" class="net_2,3,4,5"/>
  <line x1="255" x2="374.3333333333333" y1="361.5" y2="361.5" class="net_2,3,4,5"/>
  <line x1="40" x2="284.6666666666667" y1="237" y2="237" class="net_6,7,8,9"/>
  <line x1="40" x2="52" y1="237" y2="237" class="net_6,7,8,9"/>
  <line x1="52" x2="52" y1="237" y2="473" class="net_6,7,8,9"/>
  <circle cx="52" cy="237" r="2" style="fill:#000" class="net_6,7,8,9"/>
  <line x1="52" x2="149" y1="473" y2="473" class="net_6,7,8,9"/>
  <line x1="40" x2="52" y1="237" y2="237" class="net_6,7,8,9"/>
  <line x1="52" x2="52" y1="237" y2="385" class="net_6,7,8,9"/>
  <circle cx="52" cy="385" r="2" style="fill:#000" class="net_6,7,8,9"/>
  <line x1="52" x2="77" y1="385" y2="385" class="net_6,7,8,9"/>
  <line x1="40" x2="265" y1="237" y2="237" class="net_6,7,8,9"/>
  <line x1="265" x2="265" y1="237" y2="301.5" class="net_6,7,8,9"/>
  <circle cx="265" cy="237" r="2" style="fill:#000" class="net_6,7,8,9"/>
  <line x1="265" x2="283" y1="301.5" y2="301.5" class="net_6,7,8,9"/>
  <line x1="102" x2="173.33333333333334" y1="385" y2="385" class="net_24,25,26,27"/>
  <line x1="195.33333333333334" x2="284.6666666666667" y1="377.5" y2="377.5" class="net_28,29,30,31,32"/>
  <line x1="179" x2="255" y1="816.5" y2="816.5" class="net_61"/>
  <line x1="255" x2="255" y1="816.5" y2="392.5" class="net_61"/>
  <circle cx="255" cy="816.5" r="2" style="fill:#000" class="net_61"/>
  <line x1="255" x2="284.6666666666667" y1="392.5" y2="392.5" class="net_61"/>
  <line x1="179" x2="284.6666666666667" y1="816.5" y2="816.5" class="net_61"/>
  <line x1="659" x2="669" y1="42" y2="42" class="net_13,14,15,16"/>
  <line x1="669" x2="669" y1="42" y2="107" class="net_13,14,15,16"/>
  <circle cx="669" cy="42" r="2" style="fill:#000" class="net_13,14,15,16"/>
  <line x1="669" x2="694" y1="107" y2="107" class="net_13,14,15,16"/>
  <line x1="659" x2="759" y1="42" y2="42" class="net_13,14,15,16"/>
  <line x1="379.3333333333333" x2="494.5" y1="502" y2="502" class="net_37"/>
  <line x1="310" x2="360" y1="294" y2="294" class="net_47,48,49,50"/>
  <line x1="390" x2="697.3333333333334" y1="162" y2="162" class="net_62"/>
  <line x1="390" x2="400" y1="162" y2="162" class="net_62"/>
  <line x1="400" x2="400" y1="162" y2="173" class="net_62"/>
  <line x1="400" x2="471.7" y1="173" y2="173" class="net_62"/>
  <circle cx="400" cy="162" r="2" style="fill:#000" class="net_62"/>
  <line x1="471.7" x2="471.7" y1="173" y2="351" class="net_62"/>
  <line x1="652.5" x2="669" y1="764.5" y2="764.5" class="net_5,55,46,23"/>
  <line x1="669" x2="669" y1="764.5" y2="182" class="net_5,55,46,23"/>
  <line x1="669" x2="697.3333333333334" y1="182" y2="182" class="net_5,55,46,23"/>
  <line x1="652.6666666666666" x2="707.3333333333334" y1="866.5" y2="866.5" class="net_56,57,58,59"/>
  <line x1="707.3333333333334" x2="707.3333333333334" y1="866.5" y2="187" class="net_56,57,58,59"/>
  <line x1="177" x2="320" y1="881.5" y2="881.5" class="net_10,11,12"/>
  <line x1="320" x2="320" y1="881.5" y2="671.5" class="net_10,11,12"/>
  <line x1="320" x2="367" y1="671.5" y2="671.5" class="net_10,11,12"/>
  <line x1="177" x2="265" y1="881.5" y2="881.5" class="net_10,11,12"/>
  <line x1="265" x2="265" y1="881.5" y2="956.5" class="net_10,11,12"/>
  <circle cx="265" cy="881.5" r="2" style="fill:#000" class="net_10,11,12"/>
  <line x1="265" x2="284.6666666666667" y1="956.5" y2="956.5" class="net_10,11,12"/>
  <line x1="177" x2="265" y1="881.5" y2="881.5" class="net_10,11,12"/>
  <line x1="265" x2="265" y1="881.5" y2="801.5" class="net_10,11,12"/>
  <line x1="265" x2="284.6666666666667" y1="801.5" y2="801.5" class="net_10,11,12"/>
  <line x1="177" x2="265" y1="881.5" y2="881.5" class="net_10,11,12"/>
  <line x1="265" x2="265" y1="881.5" y2="906.5" class="net_10,11,12"/>
  <circle cx="265" cy="906.5" r="2" style="fill:#000" class="net_10,11,12"/>
  <line x1="265" x2="280" y1="906.5" y2="906.5" class="net_10,11,12"/>
  <line x1="177" x2="320" y1="881.5" y2="881.5" class="net_10,11,12"/>
  <line x1="320" x2="320" y1="881.5" y2="736.5" class="net_10,11,12"/>
  <circle cx="320" cy="736.5" r="2" style="fill:#000" class="net_10,11,12"/>
  <line x1="320" x2="367" y1="736.5" y2="736.5" class="net_10,11,12"/>
  <line x1="310" x2="367" y1="686.5" y2="686.5" class="net_63,64,65"/>
  <line x1="179" x2="284.6666666666667" y1="971.5" y2="971.5" class="net_66,67"/>
  <line x1="477" x2="639" y1="32" y2="32" class="net_69,70,71,72"/>
  <line x1="477.2" x2="589" y1="361.5" y2="361.5" class="net_62,2,3,4,51,52,53,54,38,39,40,41,33,34,35,36,19,20,21,22"/>
  <line x1="589" x2="589" y1="361.5" y2="52" class="net_62,2,3,4,51,52,53,54,38,39,40,41,33,34,35,36,19,20,21,22"/>
  <line x1="589" x2="639" y1="52" y2="52" class="net_62,2,3,4,51,52,53,54,38,39,40,41,33,34,35,36,19,20,21,22"/>
  <line x1="483.25" x2="649" y1="734" y2="734" class="net_56,60,57,58,59"/>
  <line x1="649" x2="649" y1="734" y2="57" class="net_56,60,57,58,59"/>
  <line x1="310" x2="367" y1="751.5" y2="751.5" class="net_74,75"/>
  <line x1="376" x2="447" y1="587" y2="587" class="net_45,44,43,42"/>
  <line x1="717.3333333333334" x2="759" y1="172" y2="172" class="net_17"/>
  <line x1="719" x2="759" y1="107" y2="107" class="net_18"/>
  <line x1="379.3333333333333" x2="400" y1="351.5" y2="351.5" class="net_5"/>
  <line x1="400" x2="400" y1="351.5" y2="481" class="net_5"/>
  <line x1="400" x2="619" y1="481" y2="481" class="net_5"/>
  <line x1="619" x2="619" y1="481" y2="754.5" class="net_5"/>
  <line x1="619" x2="646.5" y1="754.5" y2="754.5" class="net_5"/>
  <line x1="478" x2="599" y1="587" y2="587" class="net_55"/>
  <line x1="599" x2="599" y1="587" y2="774.5" class="net_55"/>
  <line x1="599" x2="646.5" y1="774.5" y2="774.5" class="net_55"/>
  <line x1="519.5" x2="609" y1="502" y2="502" class="net_46"/>
  <line x1="609" x2="609" y1="502" y2="794.5" class="net_46"/>
  <line x1="609" x2="646.5" y1="794.5" y2="794.5" class="net_46"/>
  <line x1="379.3333333333333" x2="629" y1="219.5" y2="219.5" class="net_23"/>
  <line x1="629" x2="629" y1="219.5" y2="834" class="net_23"/>
  <line x1="629" x2="647" y1="834" y2="834" class="net_23"/>
  <line x1="647" x2="647" y1="834" y2="815" class="net_23"/>
  <line x1="389" x2="589" y1="679" y2="679" class="net_56"/>
  <line x1="589" x2="589" y1="679" y2="856.5" class="net_56"/>
  <line x1="589" x2="646.6666666666666" y1="856.5" y2="856.5" class="net_56"/>
  <line x1="389" x2="400" y1="679" y2="679" class="net_56"/>
  <line x1="400" x2="400" y1="679" y2="724" class="net_56"/>
  <circle cx="400" cy="679" r="2" style="fill:#000" class="net_56"/>
  <line x1="400" x2="477.25" y1="724" y2="724" class="net_56"/>
  <line x1="376" x2="646.6666666666666" y1="876.5" y2="876.5" class="net_57,58,59"/>
  <line x1="376" x2="400" y1="876.5" y2="876.5" class="net_57,58,59"/>
  <line x1="400" x2="400" y1="876.5" y2="764" class="net_57,58,59"/>
  <circle cx="400" cy="876.5" r="2" style="fill:#000" class="net_57,58,59"/>
  <line x1="400" x2="477.25" y1="764" y2="764" class="net_57,58,59"/>
  <line x1="306.6666666666667" x2="330" y1="964" y2="964" class="net_57"/>
  <line x1="330" x2="330" y1="964" y2="866.5" class="net_57"/>
  <line x1="330" x2="370" y1="866.5" y2="866.5" class="net_57"/>
  <line x1="306.6666666666667" x2="340" y1="809" y2="809" class="net_58"/>
  <line x1="340" x2="340" y1="809" y2="886.5" class="net_58"/>
  <line x1="340" x2="370" y1="886.5" y2="886.5" class="net_58"/>
  <line x1="305" x2="370" y1="906.5" y2="906.5" class="net_59"/>
  <line x1="379.3333333333333" x2="471.2" y1="371.5" y2="371.5" class="net_2,3,4"/>
  <line x1="385" x2="410" y1="294" y2="294" class="net_51,52,53,54"/>
  <line x1="410" x2="410" y1="294" y2="391.5" class="net_51,52,53,54"/>
  <line x1="410" x2="471.2" y1="391.5" y2="391.5" class="net_51,52,53,54"/>
  <line x1="291" x2="410" y1="443" y2="443" class="net_38,39,40,41"/>
  <line x1="410" x2="410" y1="443" y2="411.5" class="net_38,39,40,41"/>
  <line x1="410" x2="471.2" y1="411.5" y2="411.5" class="net_38,39,40,41"/>
  <line x1="379.3333333333333" x2="420" y1="522" y2="522" class="net_33,34,35,36"/>
  <line x1="420" x2="420" y1="522" y2="431.5" class="net_33,34,35,36"/>
  <line x1="420" x2="471.2" y1="431.5" y2="431.5" class="net_33,34,35,36"/>
  <line x1="379.3333333333333" x2="430" y1="239.5" y2="239.5" class="net_19,20,21,22"/>
  <line x1="430" x2="430" y1="239.5" y2="471" class="net_19,20,21,22"/>
  <line x1="430" x2="471.7" y1="471" y2="471" class="net_19,20,21,22"/>
  <line x1="471.7" x2="471.7" y1="471" y2="452" class="net_19,20,21,22"/>
  <line x1="389" x2="477.25" y1="744" y2="744" class="net_60"/>
  <line x1="291" x2="340" y1="463" y2="463" class="net_45"/>
  <line x1="340" x2="340" y1="463" y2="577" class="net_45"/>
  <line x1="340" x2="370" y1="577" y2="577" class="net_45"/>
  <line x1="291" x2="330" y1="483" y2="483" class="net_44"/>
  <line x1="330" x2="330" y1="483" y2="597" class="net_44"/>
  <line x1="330" x2="370" y1="597" y2="597" class="net_44"/>
  <line x1="291" x2="320" y1="503" y2="503" class="net_43"/>
  <line x1="320" x2="320" y1="503" y2="617" class="net_43"/>
  <line x1="320" x2="370" y1="617" y2="617" class="net_43"/>
  <line x1="290.5" x2="290.5" y1="523.5" y2="656.5" class="net_42"/>
  <line x1="290.5" x2="370.5" y1="656.5" y2="656.5" class="net_42"/>
  <line x1="370.5" x2="370.5" y1="656.5" y2="637.5" class="net_42"/>
  <line x1="306.6666666666667" x2="350" y1="385" y2="385" class="net_33,34,35,36,37"/>
  <line x1="350" x2="350" y1="385" y2="512" class="net_33,34,35,36,37"/>
  <line x1="350" x2="374.3333333333333" y1="512" y2="512" class="net_33,34,35,36,37"/>
  <line x1="306.6666666666667" x2="374.3333333333333" y1="229.5" y2="229.5" class="net_19,20,21,22,23"/>
  <line x1="180" x2="286" y1="453" y2="453" class="net_38,39,40,41,42,43,44,45"/>
</svg>
